<?xml version="1.0" encoding="utf-8"?>
<!-- Generator: Adobe Illustrator 24.2.3, SVG Export Plug-In . SVG Version: 6.00 Build 0)  -->
<svg version="1.1" id="Layer_1" xmlns="http://www.w3.org/2000/svg" xmlns:xlink="http://www.w3.org/1999/xlink" x="0px" y="0px"
	 viewBox="0 0 1000 276.47" style="enable-background:new 0 0 1000 276.47;" xml:space="preserve">
<style type="text/css">
	.st0{clip-path:url(#SVGID_2_);fill:#8EB7D1;}
	.st1{clip-path:url(#SVGID_4_);fill:#8EB7D1;}
	.st2{clip-path:url(#SVGID_6_);fill:#8EB7D1;}
	.st3{clip-path:url(#SVGID_8_);fill:#8EB7D1;}
	.st4{clip-path:url(#SVGID_10_);fill:#8EB7D1;}
	.st5{clip-path:url(#SVGID_12_);fill:#8EB7D1;}
	.st6{clip-path:url(#SVGID_14_);fill:#8EB7D1;}
	.st7{clip-path:url(#SVGID_16_);fill:#8EB7D1;}
</style>
<g>
	<g>
		<defs>
			<path id="SVGID_1_" d="M13.42,12.24h99.92c27.38,0,48.64,5.87,63.79,17.58c15.14,11.72,22.71,27.97,22.71,48.77v0.79
				c0,9.74-1.98,18.7-5.93,26.86c-3.94,8.16-9.74,15.2-17.37,21.13c-7.65,5.92-16.99,10.53-28.05,13.82
				c-11.05,3.29-23.69,4.93-37.91,4.93H13.42V12.24z M0,0v276.47h13.42v-118.1h97.95l90.05,118.1h16.99l-92.03-119.68
				c12.64-1.04,24.29-3.55,34.96-7.5c10.66-3.95,19.88-9.21,27.64-15.79c7.77-6.58,13.76-14.48,17.97-23.7
				c4.21-9.22,6.32-19.61,6.32-31.21v-0.79c0-10.27-1.78-19.75-5.33-28.44c-3.56-8.69-8.49-16.32-14.81-22.9
				c-8.43-8.42-19.29-14.94-32.59-19.55C147.24,2.31,131.78,0,114.13,0H0z"/>
		</defs>
		<use xlink:href="#SVGID_1_"  style="overflow:visible;fill:#8EB7D1;"/>
		<clipPath id="SVGID_2_">
			<use xlink:href="#SVGID_1_"  style="overflow:visible;"/>
		</clipPath>
		<rect x="0" y="0" class="st0" width="218.41" height="276.47"/>
	</g>
	<g>
		<defs>
			<rect id="SVGID_3_" x="522.11" y="264.22" width="196.69" height="12.24"/>
		</defs>
		<use xlink:href="#SVGID_3_"  style="overflow:visible;fill:#8EB7D1;"/>
		<clipPath id="SVGID_4_">
			<use xlink:href="#SVGID_3_"  style="overflow:visible;"/>
		</clipPath>
		<rect x="522.11" y="264.22" class="st1" width="196.69" height="12.24"/>
	</g>
	<g>
		<defs>
			<rect id="SVGID_5_" x="522.11" width="194.71" height="12.24"/>
		</defs>
		<use xlink:href="#SVGID_5_"  style="overflow:visible;fill:#8EB7D1;"/>
		<clipPath id="SVGID_6_">
			<use xlink:href="#SVGID_5_"  style="overflow:visible;"/>
		</clipPath>
		<rect x="522.11" y="0" class="st2" width="194.71" height="12.24"/>
	</g>
	<g>
		<defs>
			<rect id="SVGID_7_" x="522.11" y="131.12" width="177.34" height="12.24"/>
		</defs>
		<use xlink:href="#SVGID_7_"  style="overflow:visible;fill:#8EB7D1;"/>
		<clipPath id="SVGID_8_">
			<use xlink:href="#SVGID_7_"  style="overflow:visible;"/>
		</clipPath>
		<rect x="522.11" y="131.12" class="st3" width="177.34" height="12.24"/>
	</g>
	<g>
		<defs>
			<polygon id="SVGID_9_" points="764.61,0 857.13,116.85 864.72,107.2 780.41,0 			"/>
		</defs>
		<use xlink:href="#SVGID_9_"  style="overflow:visible;fill:#8EB7D1;"/>
		<clipPath id="SVGID_10_">
			<use xlink:href="#SVGID_9_"  style="overflow:visible;"/>
		</clipPath>
		<rect x="764.61" y="0" class="st4" width="100.11" height="116.85"/>
	</g>
	<g>
		<defs>
			<polygon id="SVGID_11_" points="980.25,0 760.66,276.47 776.46,276.47 880.33,144.55 984.2,276.47 1000,276.47 888.63,135.86 
				996.05,0 			"/>
		</defs>
		<use xlink:href="#SVGID_11_"  style="overflow:visible;fill:#8EB7D1;"/>
		<clipPath id="SVGID_12_">
			<use xlink:href="#SVGID_11_"  style="overflow:visible;"/>
		</clipPath>
		<rect x="760.66" y="0" class="st5" width="239.34" height="276.47"/>
	</g>
	<g>
		<defs>
			<rect id="SVGID_13_" x="354.26" y="38.32" width="13.43" height="238.15"/>
		</defs>
		<use xlink:href="#SVGID_13_"  style="overflow:visible;fill:#8EB7D1;"/>
		<clipPath id="SVGID_14_">
			<use xlink:href="#SVGID_13_"  style="overflow:visible;"/>
		</clipPath>
		<rect x="354.26" y="38.32" class="st6" width="13.43" height="238.15"/>
	</g>
	<g>
		<defs>
			<polygon id="SVGID_15_" points="255.92,0 255.92,12.24 354.26,12.24 354.26,12.25 367.69,12.25 367.69,12.24 466.44,12.24 
				466.44,0 			"/>
		</defs>
		<use xlink:href="#SVGID_15_"  style="overflow:visible;fill:#8EB7D1;"/>
		<clipPath id="SVGID_16_">
			<use xlink:href="#SVGID_15_"  style="overflow:visible;"/>
		</clipPath>
		<rect x="255.92" y="0" class="st7" width="210.52" height="12.25"/>
	</g>
</g>
</svg>
