<?xml version="1.0" encoding="utf-8"?>
<!-- Generator: Adobe Illustrator 24.2.3, SVG Export Plug-In . SVG Version: 6.00 Build 0)  -->
<svg version="1.1" id="Layer_1" xmlns="http://www.w3.org/2000/svg" xmlns:xlink="http://www.w3.org/1999/xlink" x="0px" y="0px"
	 viewBox="0 0 1000 363.62" style="enable-background:new 0 0 1000 363.62;" xml:space="preserve">
<style type="text/css">
	.st0{fill:#0A1B2A;}
	.st1{fill:url(#SVGID_1_);}
	.st2{fill:url(#SVGID_2_);}
	.st3{fill:url(#SVGID_3_);}
	.st4{fill:url(#SVGID_4_);}
	.st5{clip-path:url(#SVGID_6_);fill:#8EB7D1;}
	.st6{clip-path:url(#SVGID_8_);fill:#8EB7D1;}
	.st7{clip-path:url(#SVGID_10_);fill:#8EB7D1;}
	.st8{clip-path:url(#SVGID_12_);fill:#8EB7D1;}
	.st9{clip-path:url(#SVGID_14_);fill:#8EB7D1;}
	.st10{clip-path:url(#SVGID_16_);fill:#8EB7D1;}
	.st11{clip-path:url(#SVGID_18_);fill:#8EB7D1;}
	.st12{clip-path:url(#SVGID_20_);fill:#8EB7D1;}
	.st13{clip-path:url(#SVGID_22_);fill:#8EB7D1;}
	.st14{clip-path:url(#SVGID_24_);fill:#8EB7D1;}
	.st15{clip-path:url(#SVGID_26_);fill:#8EB7D1;}
	.st16{clip-path:url(#SVGID_28_);fill:#8EB7D1;}
</style>
<rect y="748.05" class="st0" width="1000" height="997.09"/>
<g>
	<linearGradient id="SVGID_1_" gradientUnits="userSpaceOnUse" x1="1440.9451" y1="172.2241" x2="1395.9656" y2="149.7344">
		<stop  offset="0" style="stop-color:#F3F3B6"/>
		<stop  offset="0.3602" style="stop-color:#C3DBC3"/>
		<stop  offset="0.6667" style="stop-color:#8EB7D1"/>
		<stop  offset="1" style="stop-color:#6393CD"/>
	</linearGradient>
	<path class="st1" d="M1473.37,134.25c2.86,1.46,5.32,3.16,7.14,4.49c1.9,1.35,3.75,2.93,5.83,4.94c1.38,1.39,2.67,2.8,3.86,4.22
		c-0.98-1.56-2.07-3.08-3.25-4.55c-3.44-4.32-7.56-8.02-12.24-11.01c-2.7-1.73-5.58-3.24-8.54-4.5c-3.08-1.3-6.42-2.35-9.95-3.13
		c-4.12-0.9-8.4-1.35-12.71-1.35c-3.33,0-6.67,0.28-9.94,0.82c-8.01,1.32-15.86,4.28-22.69,8.56l-2.62,1.72l-2.42,1.75
		c-1.73,1.3-3.3,2.62-4.82,4.03c-3.17,2.93-5.95,6.08-8.27,9.36c-2.39,3.42-4.34,7.13-5.8,11.04c-1.41,3.68-2.27,7.74-2.57,12.08
		c-0.52,7.9,1.45,16.09,5.55,23.03c1.92,3.31,4.24,6.37,6.89,9.12l1.48,1.48l0.54,0.49c0.73,0.67,1.41,1.2,2.22,1.83
		c1.3,1,2.75,1.95,4.59,3c5.84,3.31,12.5,5.31,19.26,5.78c5.64,0.42,11.42-0.29,16.65-2.01c1.68-0.52,3.23-1.12,4.64-1.76
		c-1.61,0.5-3.22,0.9-4.84,1.23c-5.06,1.06-10.68,1.18-16.15,0.34c-3.07-0.49-6.03-1.29-8.83-2.39c-3.25-1.27-6.05-2.7-8.56-4.37
		c-1.62-1.09-2.87-2.03-3.95-2.96c-0.59-0.51-1.25-1.1-1.8-1.66c-0.4-0.38-1.3-1.34-1.74-1.9c-2.31-2.73-4.26-5.6-5.75-8.48
		c-1.71-3.34-2.9-6.65-3.55-9.83c-0.73-3.63-0.95-7.18-0.64-10.55c0.58-6.95,3.22-13.94,7.63-20.19c2.11-3,4.58-5.84,7.36-8.43
		c1.5-1.42,3.13-2.75,4.23-3.62l1.15-0.89l2.34-1.68l1.14-0.76c3.11-2.02,6.43-3.76,9.87-5.19c3.25-1.35,6.77-2.43,10.46-3.22
		c6.85-1.43,14.05-1.64,20.85-0.61C1461.68,129.41,1467.88,131.41,1473.37,134.25z"/>
	<linearGradient id="SVGID_2_" gradientUnits="userSpaceOnUse" x1="1441.4246" y1="194.7654" x2="1495.4368" y2="193.1063">
		<stop  offset="0" style="stop-color:#F3F3B6"/>
		<stop  offset="0.3602" style="stop-color:#C3DBC3"/>
		<stop  offset="0.6667" style="stop-color:#8EB7D1"/>
		<stop  offset="1" style="stop-color:#6393CD"/>
	</linearGradient>
	<path class="st2" d="M1481.17,225c3.12-2.91,5.88-6.08,8.18-9.41c4.9-7.17,7.77-15.13,8.28-23.03c0.15-1.78,0.15-3.71,0.01-6.12
		c-0.22-2.39-0.5-4.23-0.91-5.92c-0.9-3.99-2.32-7.7-4.22-11.04c-1.9-3.38-4.2-6.46-6.85-9.18l-1.34-1.33
		c-0.19-0.18-0.38-0.37-0.61-0.57c-0.86-0.78-1.55-1.37-2.16-1.85c-1.56-1.25-3.01-2.27-4.46-3.14c-3-1.85-6.21-3.3-9.58-4.32
		c-3.17-0.93-6.42-1.47-9.66-1.62c-3.06-0.13-6.03,0.08-8.88,0.62c-2.49,0.47-4.98,1.19-7.62,2.19c-1.66,0.62-3.19,1.31-4.59,2.03
		c1.62-0.59,3.23-1.09,4.84-1.51c5.34-1.4,10.83-1.79,16.04-1.12c6.05,0.78,11.98,3.14,17.13,6.81c5.36,3.79,9.99,9.18,13.03,15.19
		c3.19,6.36,4.5,13.42,3.81,20.44c-0.14,1.82-0.49,3.62-0.85,5.28c-0.45,1.72-0.94,3.5-1.61,5.23c-1.29,3.45-3.01,6.72-5.11,9.72
		c-2.06,3.01-4.51,5.86-7.26,8.45c-1.16,1.1-2.49,2.24-4.18,3.6c-0.25,0.21-0.61,0.48-0.97,0.74l-1.16,0.86l0,0.68l-1,0.03l-1.5,1
		c-3.13,2.01-6.45,3.74-9.87,5.15c-3.28,1.34-6.8,2.41-10.45,3.17c-6.83,1.4-14.01,1.59-20.8,0.56c-6.24-0.95-12.42-2.96-17.88-5.81
		c-2.93-1.5-5.47-3.28-7.12-4.49c-1.9-1.36-3.8-2.98-5.81-4.94c-1.37-1.37-2.65-2.78-3.82-4.19c0.97,1.54,2.05,3.05,3.22,4.51
		c3.43,4.32,7.53,8.02,12.2,11c2.69,1.73,5.56,3.25,8.5,4.51c3.06,1.3,6.39,2.36,9.91,3.15c7.29,1.6,15.12,1.81,22.59,0.6
		c7.99-1.28,15.83-4.2,22.67-8.45l2.64-1.72l1.45-1.02c0.3-0.21,0.6-0.42,0.94-0.69C1478.09,227.73,1479.66,226.41,1481.17,225z"/>
	<linearGradient id="SVGID_3_" gradientUnits="userSpaceOnUse" x1="1437.4196" y1="179.2753" x2="1392.4399" y2="156.7855">
		<stop  offset="0" style="stop-color:#F3F3B6"/>
		<stop  offset="0.3602" style="stop-color:#C3DBC3"/>
		<stop  offset="0.6667" style="stop-color:#8EB7D1"/>
		<stop  offset="1" style="stop-color:#6393CD"/>
	</linearGradient>
	<path class="st3" d="M1412.3,198.54c0.12,0.11,0.25,0.22,0.38,0.34c0.2,0.18,0.39,0.36,0.65,0.57l0.57,0.45
		c0.68,0.53,1.37,1.08,1.99,1.45l1.37,0.87c0.24,0.13,0.55,0.29,0.87,0.46l0.42,0.22c3.35,1.75,7.1,2.89,10.84,3.3
		c3.57,0.36,7.04,0.14,9.96-0.63l0.11-0.02c0.53-0.1,1.05-0.27,1.61-0.46l0.45-0.15c0.21-0.07,0.45-0.15,0.68-0.23
		c0.45-0.15,0.89-0.29,1.31-0.47c0.36-0.18,0.8-0.38,1.22-0.58c0.8-0.37,1.55-0.72,2.2-1.11l0.94-0.59c0.45-0.28,0.89-0.56,1.3-0.82
		l-2.53,0.83c-0.77,0.23-1.54,0.4-2.3,0.57c-0.43,0.09-0.86,0.19-1.3,0.3l-0.11,0.02c-0.38,0.06-0.78,0.11-1.17,0.16
		c-0.25,0.03-0.5,0.06-0.76,0.1l-0.44,0.06c-0.47,0.06-1,0.14-1.57,0.14l-0.2,0c-0.43,0.01-0.93,0.03-1.43,0.04l-0.52,0.02
		c-0.54-0.02-0.98-0.05-1.42-0.08c-0.27-0.02-0.54-0.04-0.81-0.06c-0.57-0.01-1.15-0.11-1.72-0.21l-1.76-0.29l-1.02-0.27
		c-3.09-0.76-6.14-2.08-8.86-3.82l-1-0.65l-1.02-0.77c-0.45-0.31-0.84-0.66-1.18-0.96c-0.17-0.15-0.34-0.31-0.53-0.46
		c-0.24-0.21-0.49-0.46-0.74-0.72l-0.82-0.85l0,0l-0.05-0.05l0,0l-0.53-0.57l0.03-0.07l-1.39-1.71c-2.06-2.96-3.5-6.03-4.26-9.14
		c-0.83-3.13-1.03-6.49-0.59-9.96c0.38-3,1.41-6.17,3.08-9.44c0.46-1.02,1.08-1.96,1.68-2.88c0.27-0.41,0.53-0.81,0.79-1.23
		l0.1-0.14l1.69-2.15c0.16-0.21,0.33-0.42,0.5-0.62l2.33-2.52l2.2-1.96l-0.04-0.12l2.93-2.24c2.32-1.65,4.55-3.01,6.69-4.08
		c0.61-0.32,1.23-0.6,1.84-0.86c0.15-0.07,0.31-0.14,0.46-0.2c-0.83,0.14-1.68,0.29-2.57,0.5c-2.45,0.56-5.04,1.47-7.72,2.69
		c-0.47,0.23-0.98,0.51-1.5,0.78l-2.59,1.52l-1.95,1.25l-3.19,2.54c-0.15,0.14-0.34,0.33-0.54,0.53l-2.65,2.7
		c-1.06,1.27-2.16,2.59-3.03,4.03l-0.09,0.14c-0.52,0.79-1.01,1.53-1.37,2.33c-0.16,0.34-0.32,0.66-0.49,0.99
		c-0.3,0.59-0.58,1.14-0.78,1.7l-1.04,2.88l-0.7,3.02c-0.74,3.94-0.59,8.19,0.42,12.23c1.04,3.99,2.95,7.82,5.52,11.09l2.62,2.93
		L1412.3,198.54z"/>
	<linearGradient id="SVGID_4_" gradientUnits="userSpaceOnUse" x1="1441.2844" y1="190.2038" x2="1495.2966" y2="188.5447">
		<stop  offset="0" style="stop-color:#F3F3B6"/>
		<stop  offset="0.3602" style="stop-color:#C3DBC3"/>
		<stop  offset="0.6667" style="stop-color:#8EB7D1"/>
		<stop  offset="1" style="stop-color:#6393CD"/>
	</linearGradient>
	<path class="st4" d="M1465.46,214.11l1.05-0.83c0.72-0.57,1.46-1.16,2.18-1.78l1.96-1.94c0.63-0.58,1.16-1.24,1.71-1.93l0.12-0.14
		c0.16-0.2,0.33-0.41,0.5-0.63c0.44-0.54,0.86-1.06,1.19-1.61c0.2-0.31,0.38-0.59,0.56-0.86c0.37-0.56,0.74-1.12,1.07-1.7l0.05-0.1
		l1.29-2.62c0.71-1.72,1.46-3.67,1.84-5.71c0.9-4.06,0.89-8.36-0.02-12.48c-0.98-4.21-2.82-8.12-5.33-11.29l-0.07-0.1
		c-0.24-0.37-0.55-0.72-0.89-1.09l-2.18-2.39l-1.05-0.94c-0.16-0.15-0.34-0.29-0.54-0.45l-0.7-0.55c-0.13-0.1-0.29-0.22-0.45-0.35
		c-0.26-0.21-0.53-0.42-0.78-0.57l-0.53-0.34c-0.72-0.46-1.39-0.9-2.09-1.24c-3.42-1.85-7.2-3.05-10.97-3.51
		c-3.6-0.42-7.11-0.23-10.08,0.54l-0.46,0.1c-0.23,0.05-0.46,0.1-0.68,0.16l-3.09,1.05c-0.38,0.18-0.76,0.36-1.13,0.53
		c-0.85,0.4-1.66,0.77-2.37,1.18l-0.76,0.48c-0.51,0.32-1,0.63-1.47,0.93l2.53-0.83c0.81-0.22,1.59-0.4,2.39-0.58
		c0.41-0.09,0.83-0.19,1.25-0.29l0.15-0.03l2.86-0.37c0.35-0.03,0.6-0.04,0.84-0.04l0.34-0.01c0.35,0,0.66-0.02,0.97-0.03
		c0.37-0.02,0.74-0.03,1.11-0.03l0.13,0l2.12,0.15c0.5,0.02,1,0.11,1.49,0.19c0.25,0.04,0.5,0.09,0.75,0.12
		c0.72,0.08,1.41,0.27,2.08,0.45l0.27,0.07c3.07,0.8,6.14,2.17,8.87,3.96c0.44,0.26,0.88,0.59,1.29,0.92
		c0.22,0.17,0.44,0.34,0.67,0.5c0.26,0.18,0.47,0.37,0.68,0.56c0.07,0.07,0.15,0.14,0.23,0.21l0.95,0.86l1.13,1.17l-0.21,0.21
		l0.22-0.2l0.65,0.67l-0.05,0.12l0.77,0.95c0.28,0.34,0.58,0.69,0.82,1.11c1.97,2.79,3.39,6,4.11,9.29c0.75,3.19,0.84,6.6,0.27,10.1
		c-0.6,3.45-1.73,6.63-3.35,9.44c-0.28,0.59-0.62,1.1-0.95,1.59c-0.12,0.18-0.25,0.37-0.36,0.55l-0.34,0.52
		c-0.34,0.53-0.69,1.07-1.15,1.59l-1.64,2.04l-2.1,2.26c-0.26,0.26-0.48,0.45-0.7,0.64l-1.7,1.5l0.03,0.11l-3.93,2.9
		c-2.27,1.63-4.61,2.8-6.68,3.83l-0.12,0.06c-0.48,0.2-0.85,0.36-1.22,0.52c-0.4,0.17-0.79,0.34-1.17,0.5
		c0.45-0.06,0.92-0.14,1.42-0.22c0.41-0.07,0.83-0.14,1.26-0.21c2.39-0.55,5.06-1.25,7.76-2.5l0.38-0.16
		c0.24-0.1,0.48-0.2,0.72-0.31l3.22-1.75l2.4-1.54C1465.04,214.39,1465.25,214.26,1465.46,214.11z"/>
</g>
<g>
	<defs>
		<path id="SVGID_5_" d="M1521.04,136.25h34.62c9.49,0,16.85,2.03,22.1,6.09c5.25,4.06,7.87,9.69,7.87,16.9v0.27
			c0,3.38-0.69,6.48-2.05,9.31c-1.37,2.83-3.37,5.27-6.02,7.32c-2.65,2.05-5.89,3.65-9.72,4.79c-3.83,1.14-8.21,1.71-13.14,1.71
			h-33.66V136.25z M1516.39,132.01v95.79h4.65v-40.92h33.94l31.2,40.92h5.89l-31.89-41.47c4.38-0.36,8.42-1.23,12.11-2.6
			c3.69-1.37,6.89-3.19,9.58-5.47c2.69-2.28,4.77-5.02,6.23-8.21s2.19-6.8,2.19-10.81v-0.27c0-3.56-0.62-6.84-1.85-9.85
			c-1.23-3.01-2.94-5.65-5.13-7.94c-2.92-2.92-6.68-5.18-11.29-6.77c-4.61-1.6-9.97-2.4-16.08-2.4H1516.39z"/>
	</defs>
	<use xlink:href="#SVGID_5_"  style="overflow:visible;fill:#8EB7D1;"/>
	<clipPath id="SVGID_6_">
		<use xlink:href="#SVGID_5_"  style="overflow:visible;"/>
	</clipPath>
	<rect x="1516.39" y="132.01" class="st5" width="75.67" height="95.79"/>
</g>
<g>
	<defs>
		<rect id="SVGID_7_" x="1697.29" y="223.56" width="68.15" height="4.24"/>
	</defs>
	<use xlink:href="#SVGID_7_"  style="overflow:visible;fill:#8EB7D1;"/>
	<clipPath id="SVGID_8_">
		<use xlink:href="#SVGID_7_"  style="overflow:visible;"/>
	</clipPath>
	<rect x="1697.29" y="223.56" class="st6" width="68.15" height="4.24"/>
</g>
<g>
	<defs>
		<rect id="SVGID_9_" x="1697.29" y="132.01" width="67.46" height="4.24"/>
	</defs>
	<use xlink:href="#SVGID_9_"  style="overflow:visible;fill:#8EB7D1;"/>
	<clipPath id="SVGID_10_">
		<use xlink:href="#SVGID_9_"  style="overflow:visible;"/>
	</clipPath>
	<rect x="1697.29" y="132.01" class="st7" width="67.46" height="4.24"/>
</g>
<g>
	<defs>
		<rect id="SVGID_11_" x="1697.29" y="177.44" width="61.44" height="4.24"/>
	</defs>
	<use xlink:href="#SVGID_11_"  style="overflow:visible;fill:#8EB7D1;"/>
	<clipPath id="SVGID_12_">
		<use xlink:href="#SVGID_11_"  style="overflow:visible;"/>
	</clipPath>
	<rect x="1697.29" y="177.44" class="st8" width="61.44" height="4.24"/>
</g>
<g>
	<defs>
		<polygon id="SVGID_13_" points="1781.31,132.01 1813.37,172.5 1816,169.16 1786.78,132.01 		"/>
	</defs>
	<use xlink:href="#SVGID_13_"  style="overflow:visible;fill:#8EB7D1;"/>
	<clipPath id="SVGID_14_">
		<use xlink:href="#SVGID_13_"  style="overflow:visible;"/>
	</clipPath>
	<rect x="1781.31" y="132.01" class="st9" width="34.69" height="40.49"/>
</g>
<g>
	<defs>
		<polygon id="SVGID_15_" points="1856.03,132.01 1779.94,227.8 1785.42,227.8 1821.41,182.1 1857.39,227.8 1862.87,227.8 
			1824.28,179.09 1861.5,132.01 		"/>
	</defs>
	<use xlink:href="#SVGID_15_"  style="overflow:visible;fill:#8EB7D1;"/>
	<clipPath id="SVGID_16_">
		<use xlink:href="#SVGID_15_"  style="overflow:visible;"/>
	</clipPath>
	<rect x="1779.94" y="132.01" class="st10" width="82.93" height="95.79"/>
</g>
<g>
	<defs>
		<rect id="SVGID_17_" x="1639.13" y="145.29" width="4.65" height="82.51"/>
	</defs>
	<use xlink:href="#SVGID_17_"  style="overflow:visible;fill:#8EB7D1;"/>
	<clipPath id="SVGID_18_">
		<use xlink:href="#SVGID_17_"  style="overflow:visible;"/>
	</clipPath>
	<rect x="1639.13" y="145.29" class="st11" width="4.65" height="82.51"/>
</g>
<g>
	<defs>
		<polygon id="SVGID_19_" points="1605.06,132.01 1605.06,136.25 1639.13,136.25 1639.13,136.26 1643.79,136.26 1643.79,136.25 
			1678,136.25 1678,132.01 		"/>
	</defs>
	<use xlink:href="#SVGID_19_"  style="overflow:visible;fill:#8EB7D1;"/>
	<clipPath id="SVGID_20_">
		<use xlink:href="#SVGID_19_"  style="overflow:visible;"/>
	</clipPath>
	<rect x="1605.06" y="132.01" class="st12" width="72.94" height="4.24"/>
</g>
<g>
	<g>
		<defs>
			<path id="SVGID_21_" d="M18.82,1.46v15.77h196.34L82.91,168.77L88,178.97h14.74c18.31,0,35.01,1.7,50.1,5.08
				c15.09,3.4,28.14,8.48,39.16,15.26c11.02,6.79,19.59,15.44,25.69,25.94c6.1,10.52,9.16,23.07,9.16,37.64v1.02
				c0,12.21-2.64,23.49-7.88,33.82c-5.27,10.35-12.3,19.25-21.11,26.71c-8.83,7.46-19.17,13.22-31.03,17.29
				c-11.87,4.06-24.42,6.1-37.64,6.1c-24.76,0-46.88-5.34-66.38-16.02c-19.5-10.68-36.04-25-49.59-42.99L0,300.03
				c14.24,18.66,32.12,33.92,53.66,45.78c21.53,11.87,46.54,17.81,75.03,17.81c15.59,0,30.35-2.47,44.25-7.38
				c13.9-4.91,26.1-11.78,36.63-20.59c10.51-8.82,18.89-19.33,25.17-31.54c6.27-12.21,9.41-25.76,9.41-40.69v-1.02
				c0-16.61-3.39-31.02-10.17-43.23c-6.79-12.22-16.2-22.39-28.23-30.53c-12.04-8.14-26.37-14.32-42.98-18.56
				c-16.62-4.24-34.93-6.52-54.94-6.87L238.56,13.67V1.46H18.82z"/>
		</defs>
		<use xlink:href="#SVGID_21_"  style="overflow:visible;fill:#8EB7D1;"/>
		<clipPath id="SVGID_22_">
			<use xlink:href="#SVGID_21_"  style="overflow:visible;"/>
		</clipPath>
		<rect x="0" y="1.46" class="st13" width="244.15" height="362.16"/>
	</g>
	<g>
		<defs>
			<path id="SVGID_23_" d="M343.84,17.22h98.68c25.76,0,49.17,4.24,70.2,12.72c21.02,8.48,38.99,20.01,53.91,34.58
				c14.92,14.59,26.53,31.79,34.85,51.63c8.3,19.84,12.46,40.95,12.46,63.33v1.01c0,22.38-4.06,43.41-12.21,63.08
				c-8.14,19.67-19.75,36.8-34.84,51.37c-15.09,14.58-33.15,26.03-54.17,34.33c-21.03,8.32-44.25,12.47-69.69,12.47h-99.19V17.22z
				 M326.55,1.46v356.06h115.78c27.75,0,53.23-4.58,76.42-13.73c23.19-9.16,43.16-21.7,59.93-37.64
				c16.75-15.94,29.7-34.67,38.84-56.21c9.14-21.53,13.71-44.84,13.71-69.94v-1.02c0-25.1-4.57-48.4-13.71-69.94
				c-9.14-21.53-22.1-40.26-38.84-56.2c-16.77-15.94-36.74-28.49-59.93-37.65c-23.19-9.16-48.67-13.73-76.42-13.73H326.55z"/>
		</defs>
		<use xlink:href="#SVGID_23_"  style="overflow:visible;fill:#8EB7D1;"/>
		<clipPath id="SVGID_24_">
			<use xlink:href="#SVGID_23_"  style="overflow:visible;"/>
		</clipPath>
		<rect x="326.55" y="1.46" class="st14" width="304.68" height="356.06"/>
	</g>
	<g>
		<defs>
			<polygon id="SVGID_25_" points="982.2,1.46 853.5,293.24 861.73,311.92 1000,1.46 			"/>
		</defs>
		<use xlink:href="#SVGID_25_"  style="overflow:visible;fill:#8EB7D1;"/>
		<clipPath id="SVGID_26_">
			<use xlink:href="#SVGID_25_"  style="overflow:visible;"/>
		</clipPath>
		<rect x="853.5" y="1.46" class="st15" width="146.5" height="310.47"/>
	</g>
	<g>
		<defs>
			<polygon id="SVGID_27_" points="666.33,1.46 826.04,360.05 840.28,360.05 841.9,356.44 833.76,337.97 833.67,338.18 685.15,1.46 
							"/>
		</defs>
		<use xlink:href="#SVGID_27_"  style="overflow:visible;fill:#8EB7D1;"/>
		<clipPath id="SVGID_28_">
			<use xlink:href="#SVGID_27_"  style="overflow:visible;"/>
		</clipPath>
		<rect x="666.33" y="1.46" class="st16" width="175.57" height="358.6"/>
	</g>
</g>
<rect x="1138.81" y="-316.01" class="st0" width="1000" height="997.09"/>
</svg>
