<?xml version="1.0" encoding="utf-8"?>
<!-- Generator: Adobe Illustrator 24.2.3, SVG Export Plug-In . SVG Version: 6.00 Build 0)  -->
<svg version="1.1" id="Layer_1" xmlns="http://www.w3.org/2000/svg" xmlns:xlink="http://www.w3.org/1999/xlink" x="0px" y="0px"
	 viewBox="0 0 305.59 281.4" style="enable-background:new 0 0 305.59 281.4;" xml:space="preserve">
<style type="text/css">
	.st0{fill:#0A1B2A;}
	.st1{fill:url(#SVGID_1_);}
	.st2{fill:url(#SVGID_2_);}
	.st3{fill:url(#SVGID_3_);}
	.st4{fill:url(#SVGID_4_);}
	.st5{clip-path:url(#SVGID_6_);fill:#8EB7D1;}
	.st6{clip-path:url(#SVGID_8_);fill:#8EB7D1;}
	.st7{clip-path:url(#SVGID_10_);fill:#8EB7D1;}
	.st8{clip-path:url(#SVGID_12_);fill:#8EB7D1;}
	.st9{clip-path:url(#SVGID_14_);fill:#8EB7D1;}
	.st10{clip-path:url(#SVGID_16_);fill:#8EB7D1;}
	.st11{clip-path:url(#SVGID_18_);fill:#8EB7D1;}
	.st12{clip-path:url(#SVGID_20_);fill:#8EB7D1;}
	.st13{clip-path:url(#SVGID_22_);fill:#8EB7D1;}
	.st14{clip-path:url(#SVGID_24_);fill:#8EB7D1;}
	.st15{clip-path:url(#SVGID_26_);fill:#8EB7D1;}
	.st16{clip-path:url(#SVGID_28_);fill:#8EB7D1;}
</style>
<rect x="-385.09" y="688.12" class="st0" width="1000" height="997.09"/>
<g>
	<linearGradient id="SVGID_1_" gradientUnits="userSpaceOnUse" x1="152.6093" y1="116.1891" x2="45.676" y2="62.7225">
		<stop  offset="0" style="stop-color:#F3F3B6"/>
		<stop  offset="0.3602" style="stop-color:#C3DBC3"/>
		<stop  offset="0.6667" style="stop-color:#8EB7D1"/>
		<stop  offset="1" style="stop-color:#6393CD"/>
	</linearGradient>
	<path class="st1" d="M229.69,25.91c6.81,3.47,12.65,7.52,16.98,10.67c4.51,3.22,8.92,6.96,13.85,11.74
		c3.28,3.29,6.35,6.66,9.17,10.04c-2.33-3.7-4.91-7.31-7.72-10.82c-8.18-10.27-17.97-19.08-29.1-26.18
		c-6.43-4.12-13.26-7.71-20.29-10.7c-7.32-3.09-15.27-5.6-23.65-7.45C179.14,1.08,168.97,0,158.72,0c-7.92,0-15.87,0.65-23.63,1.94
		c-19.05,3.13-37.7,10.17-53.93,20.35l-6.24,4.09l-5.76,4.15c-4.11,3.09-7.86,6.22-11.46,9.57c-7.53,6.96-14.14,14.44-19.66,22.26
		c-5.67,8.12-10.32,16.95-13.79,26.23c-3.34,8.75-5.4,18.41-6.11,28.72c-1.25,18.79,3.44,38.24,13.19,54.76
		c4.57,7.86,10.08,15.15,16.39,21.68l3.52,3.51l1.29,1.15c1.74,1.59,3.35,2.85,5.28,4.34c3.08,2.38,6.55,4.65,10.91,7.13
		c13.89,7.86,29.72,12.62,45.78,13.74c13.41,1,27.15-0.68,39.58-4.78c4-1.24,7.67-2.67,11.04-4.18c-3.83,1.18-7.65,2.15-11.52,2.92
		c-12.03,2.52-25.38,2.82-38.39,0.81c-7.29-1.16-14.34-3.07-20.98-5.67c-7.73-3.02-14.39-6.41-20.35-10.39
		c-3.85-2.59-6.83-4.82-9.39-7.04c-1.39-1.21-2.97-2.61-4.27-3.95c-0.94-0.9-3.1-3.19-4.13-4.52c-5.5-6.49-10.13-13.32-13.68-20.17
		c-4.06-7.94-6.9-15.8-8.44-23.37c-1.74-8.62-2.26-17.06-1.53-25.09c1.38-16.53,7.65-33.13,18.13-48c5-7.13,10.9-13.87,17.51-20.05
		c3.56-3.37,7.44-6.53,10.05-8.61l2.74-2.11l5.57-4l2.7-1.81c7.4-4.8,15.28-8.95,23.46-12.34c7.73-3.2,16.1-5.77,24.88-7.65
		c16.29-3.41,33.41-3.9,49.56-1.46C201.9,14.4,216.65,19.15,229.69,25.91z"/>
	<linearGradient id="SVGID_2_" gradientUnits="userSpaceOnUse" x1="153.749" y1="169.7782" x2="282.1565" y2="165.834">
		<stop  offset="0" style="stop-color:#F3F3B6"/>
		<stop  offset="0.3602" style="stop-color:#C3DBC3"/>
		<stop  offset="0.6667" style="stop-color:#8EB7D1"/>
		<stop  offset="1" style="stop-color:#6393CD"/>
	</linearGradient>
	<path class="st2" d="M248.24,241.66c7.43-6.92,13.97-14.45,19.45-22.38c11.66-17.03,18.47-35.97,19.69-54.76
		c0.36-4.23,0.37-8.83,0.03-14.54c-0.53-5.68-1.2-10.06-2.15-14.08c-2.14-9.48-5.51-18.3-10.04-26.23
		c-4.51-8.03-9.99-15.37-16.28-21.82l-3.19-3.17c-0.45-0.44-0.91-0.88-1.45-1.36c-2.05-1.86-3.68-3.26-5.14-4.41
		c-3.7-2.97-7.16-5.41-10.61-7.46c-7.13-4.39-14.77-7.84-22.77-10.26c-7.54-2.21-15.27-3.5-22.96-3.84
		c-7.28-0.31-14.34,0.19-21.12,1.48c-5.92,1.12-11.84,2.82-18.12,5.22c-3.96,1.48-7.58,3.11-10.92,4.82
		c3.84-1.4,7.67-2.59,11.52-3.59c12.69-3.33,25.76-4.26,38.13-2.67c14.39,1.87,28.47,7.46,40.72,16.19
		c12.75,9,23.76,21.83,30.98,36.12c7.57,15.12,10.7,31.91,9.06,48.58c-0.34,4.33-1.17,8.6-2.03,12.55
		c-1.06,4.09-2.23,8.32-3.82,12.43c-3.07,8.19-7.16,15.98-12.16,23.11c-4.9,7.16-10.72,13.92-17.26,20.09
		c-2.75,2.61-5.91,5.34-9.94,8.57c-0.59,0.51-1.44,1.14-2.3,1.77l-2.77,2.04l0.01,1.61l-2.38,0.07l-3.57,2.38
		c-7.45,4.79-15.33,8.89-23.47,12.23c-7.81,3.19-16.17,5.73-24.85,7.55c-16.24,3.33-33.31,3.78-49.45,1.32
		c-14.83-2.26-29.53-7.03-42.51-13.8c-6.97-3.57-13-7.8-16.93-10.67c-4.51-3.23-9.04-7.08-13.8-11.73c-3.25-3.26-6.29-6.6-9.08-9.96
		c2.31,3.67,4.86,7.25,7.64,10.72c8.16,10.28,17.91,19.07,28.99,26.16c6.41,4.12,13.21,7.73,20.22,10.72
		c7.27,3.09,15.2,5.61,23.57,7.49c17.34,3.8,35.96,4.3,53.7,1.42c19-3.05,37.63-9.99,53.89-20.09l6.27-4.09l3.44-2.43
		c0.72-0.5,1.44-1.01,2.23-1.64C240.91,248.14,244.66,245,248.24,241.66z"/>
	<linearGradient id="SVGID_3_" gradientUnits="userSpaceOnUse" x1="144.2276" y1="132.9523" x2="37.2944" y2="79.4857">
		<stop  offset="0" style="stop-color:#F3F3B6"/>
		<stop  offset="0.3602" style="stop-color:#C3DBC3"/>
		<stop  offset="0.6667" style="stop-color:#8EB7D1"/>
		<stop  offset="1" style="stop-color:#6393CD"/>
	</linearGradient>
	<path class="st3" d="M84.5,178.75c0.29,0.26,0.6,0.53,0.9,0.81c0.47,0.43,0.94,0.86,1.55,1.35l1.35,1.06
		c1.61,1.26,3.27,2.57,4.72,3.44l3.25,2.06c0.57,0.31,1.32,0.7,2.06,1.08l1,0.52c7.97,4.17,16.89,6.88,25.76,7.84
		c8.5,0.85,16.73,0.33,23.68-1.5l0.26-0.06c1.26-0.23,2.51-0.65,3.83-1.1l1.08-0.36c0.51-0.18,1.07-0.36,1.62-0.54
		c1.07-0.35,2.12-0.7,3.12-1.11c0.85-0.43,1.89-0.91,2.91-1.39c1.9-0.88,3.69-1.71,5.24-2.64l2.24-1.41
		c1.07-0.67,2.11-1.32,3.09-1.96l-6.01,1.97c-1.83,0.55-3.67,0.96-5.46,1.35c-1.01,0.22-2.05,0.45-3.08,0.7l-0.26,0.05
		c-0.91,0.15-1.84,0.26-2.78,0.38c-0.6,0.07-1.2,0.15-1.8,0.23l-1.04,0.14c-1.12,0.15-2.39,0.32-3.73,0.32l-0.47-0.01
		c-1.03,0.02-2.21,0.06-3.39,0.11l-1.25,0.05c-1.28-0.04-2.33-0.12-3.38-0.2c-0.64-0.05-1.28-0.1-1.93-0.14
		c-1.36-0.03-2.75-0.26-4.09-0.49l-4.18-0.68l-2.42-0.64c-7.34-1.81-14.6-4.94-21.06-9.08l-2.38-1.55l-2.42-1.83
		c-1.08-0.73-2-1.56-2.81-2.29c-0.41-0.37-0.81-0.73-1.25-1.09c-0.58-0.5-1.17-1.11-1.75-1.72l-1.95-2.01l0,0l-0.12-0.12l0.01-0.01
		l-1.26-1.36l0.06-0.17l-3.31-4.08c-4.91-7.04-8.32-14.34-10.14-21.72c-1.98-7.44-2.45-15.43-1.39-23.69
		c0.9-7.12,3.36-14.68,7.31-22.44c1.09-2.41,2.57-4.67,4-6.85c0.63-0.97,1.27-1.94,1.87-2.92l0.23-0.33l4.02-5.11
		c0.39-0.5,0.78-1,1.19-1.47l5.55-6l5.23-4.65l-0.08-0.28l6.97-5.33c5.51-3.93,10.82-7.16,15.9-9.7c1.44-0.76,2.93-1.42,4.37-2.06
		c0.37-0.16,0.73-0.32,1.08-0.48c-1.97,0.33-4,0.68-6.1,1.18c-5.82,1.33-11.99,3.49-18.36,6.4c-1.12,0.56-2.34,1.2-3.58,1.86
		l-6.16,3.62l-4.64,2.97l-7.59,6.03c-0.36,0.33-0.82,0.79-1.28,1.25l-6.3,6.42c-2.52,3.02-5.14,6.15-7.2,9.58l-0.21,0.33
		c-1.24,1.87-2.4,3.64-3.25,5.54c-0.38,0.81-0.77,1.58-1.16,2.35c-0.71,1.39-1.37,2.71-1.85,4.05l-2.48,6.85l-1.67,7.17
		c-1.75,9.37-1.41,19.48,1,29.09c2.47,9.48,7,18.6,13.11,26.36l6.24,6.97L84.5,178.75z"/>
	<linearGradient id="SVGID_4_" gradientUnits="userSpaceOnUse" x1="153.4159" y1="158.9334" x2="281.8234" y2="154.9892">
		<stop  offset="0" style="stop-color:#F3F3B6"/>
		<stop  offset="0.3602" style="stop-color:#C3DBC3"/>
		<stop  offset="0.6667" style="stop-color:#8EB7D1"/>
		<stop  offset="1" style="stop-color:#6393CD"/>
	</linearGradient>
	<path class="st4" d="M210.89,215.76l2.49-1.96c1.72-1.36,3.48-2.76,5.19-4.23l4.66-4.61c1.49-1.38,2.75-2.94,4.08-4.6l0.28-0.34
		c0.37-0.48,0.78-0.98,1.2-1.49c1.06-1.29,2.05-2.52,2.83-3.83c0.47-0.74,0.9-1.4,1.34-2.05c0.87-1.32,1.75-2.66,2.54-4.05
		l0.12-0.25l3.08-6.22c1.69-4.09,3.46-8.72,4.38-13.57c2.14-9.66,2.12-19.88-0.05-29.66c-2.32-10-6.71-19.29-12.68-26.85l-0.17-0.23
		c-0.57-0.87-1.32-1.71-2.11-2.59l-5.18-5.68l-2.5-2.25c-0.38-0.36-0.81-0.7-1.28-1.06l-1.66-1.3c-0.31-0.23-0.69-0.52-1.07-0.82
		c-0.63-0.49-1.25-0.99-1.86-1.35l-1.26-0.81c-1.7-1.1-3.31-2.14-4.97-2.95c-8.14-4.4-17.11-7.26-26.08-8.35
		c-8.55-0.99-16.89-0.55-23.96,1.28l-1.09,0.25c-0.54,0.12-1.09,0.23-1.61,0.38l-7.35,2.49c-0.91,0.44-1.81,0.86-2.7,1.27
		c-2.03,0.94-3.95,1.83-5.64,2.8l-1.8,1.13c-1.21,0.76-2.38,1.49-3.49,2.2l6.02-1.96c1.92-0.53,3.78-0.95,5.69-1.37
		c0.98-0.22,1.97-0.44,2.97-0.68l0.35-0.06l6.79-0.87c0.83-0.08,1.41-0.09,2.01-0.1l0.81-0.02c0.84-0.01,1.58-0.04,2.32-0.06
		c0.87-0.04,1.75-0.07,2.64-0.07l0.31,0.01l5.04,0.36c1.19,0.05,2.38,0.26,3.53,0.46c0.59,0.11,1.19,0.21,1.78,0.29
		c1.71,0.19,3.36,0.63,4.95,1.06l0.64,0.17c7.31,1.89,14.6,5.15,21.08,9.42c1.06,0.61,2.08,1.41,3.08,2.18
		c0.52,0.41,1.05,0.82,1.59,1.2c0.62,0.42,1.12,0.87,1.62,1.33c0.18,0.17,0.35,0.33,0.55,0.5l2.27,2.05l2.69,2.77l-0.5,0.5
		l0.52-0.48l1.54,1.58l-0.11,0.29l1.84,2.26c0.67,0.8,1.37,1.64,1.96,2.64c4.68,6.63,8.07,14.26,9.78,22.08
		c1.78,7.59,2.01,15.69,0.64,24.01c-1.43,8.21-4.11,15.75-7.98,22.45c-0.65,1.41-1.47,2.61-2.25,3.78c-0.3,0.44-0.59,0.87-0.87,1.31
		l-0.81,1.23c-0.81,1.25-1.65,2.55-2.72,3.79l-3.9,4.86l-5,5.38c-0.62,0.61-1.14,1.06-1.66,1.51l-4.03,3.56l0.07,0.27l-9.33,6.91
		c-5.39,3.88-10.96,6.66-15.87,9.11l-0.29,0.14c-1.13,0.48-2.03,0.86-2.9,1.24c-0.95,0.41-1.88,0.81-2.79,1.18
		c1.07-0.14,2.2-0.34,3.37-0.53c0.97-0.16,1.97-0.33,2.99-0.49c5.67-1.31,12.03-2.97,18.46-5.94l0.9-0.39
		c0.56-0.24,1.14-0.48,1.7-0.74l7.64-4.17l5.71-3.66C209.9,216.43,210.39,216.12,210.89,215.76z"/>
</g>
<g>
	<g>
		<defs>
			<path id="SVGID_5_" d="M-1821.63-879.22h87.97c24.11,0,42.82,5.16,56.16,15.48c13.33,10.31,19.99,24.63,19.99,42.94v0.7
				c0,8.58-1.74,16.47-5.22,23.65c-3.47,7.19-8.58,13.38-15.29,18.6c-6.73,5.21-14.95,9.27-24.69,12.17
				c-9.73,2.9-20.86,4.34-33.38,4.34h-85.54V-879.22z M-1833.45-890v243.4h11.82v-103.97h86.23l79.28,103.97h14.95l-81.02-105.36
				c11.13-0.92,21.39-3.13,30.78-6.6c9.39-3.48,17.5-8.11,24.34-13.91c6.84-5.79,12.11-12.75,15.82-20.86
				c3.71-8.11,5.56-17.27,5.56-27.47v-0.69c0-9.04-1.56-17.38-4.69-25.04c-3.13-7.65-7.48-14.37-13.04-20.17
				c-7.42-7.41-16.99-13.15-28.69-17.21c-11.71-4.06-25.33-6.09-40.86-6.09H-1833.45z"/>
		</defs>
		<use xlink:href="#SVGID_5_"  style="overflow:visible;fill:#8EB7D1;"/>
		<clipPath id="SVGID_6_">
			<use xlink:href="#SVGID_5_"  style="overflow:visible;"/>
		</clipPath>
		<rect x="-1833.45" y="-890" class="st5" width="192.29" height="243.4"/>
	</g>
	<g>
		<defs>
			<rect id="SVGID_7_" x="-1373.78" y="-657.37" width="173.17" height="10.78"/>
		</defs>
		<use xlink:href="#SVGID_7_"  style="overflow:visible;fill:#8EB7D1;"/>
		<clipPath id="SVGID_8_">
			<use xlink:href="#SVGID_7_"  style="overflow:visible;"/>
		</clipPath>
		<rect x="-1373.78" y="-657.37" class="st6" width="173.17" height="10.78"/>
	</g>
	<g>
		<defs>
			<rect id="SVGID_9_" x="-1373.78" y="-890" width="171.43" height="10.78"/>
		</defs>
		<use xlink:href="#SVGID_9_"  style="overflow:visible;fill:#8EB7D1;"/>
		<clipPath id="SVGID_10_">
			<use xlink:href="#SVGID_9_"  style="overflow:visible;"/>
		</clipPath>
		<rect x="-1373.78" y="-890" class="st7" width="171.43" height="10.78"/>
	</g>
	<g>
		<defs>
			<rect id="SVGID_11_" x="-1373.78" y="-774.56" width="156.13" height="10.78"/>
		</defs>
		<use xlink:href="#SVGID_11_"  style="overflow:visible;fill:#8EB7D1;"/>
		<clipPath id="SVGID_12_">
			<use xlink:href="#SVGID_11_"  style="overflow:visible;"/>
		</clipPath>
		<rect x="-1373.78" y="-774.56" class="st8" width="156.13" height="10.78"/>
	</g>
	<g>
		<defs>
			<polygon id="SVGID_13_" points="-1160.28,-890 -1078.82,-787.12 -1072.14,-795.62 -1146.37,-890 			"/>
		</defs>
		<use xlink:href="#SVGID_13_"  style="overflow:visible;fill:#8EB7D1;"/>
		<clipPath id="SVGID_14_">
			<use xlink:href="#SVGID_13_"  style="overflow:visible;"/>
		</clipPath>
		<rect x="-1160.28" y="-890" class="st9" width="88.14" height="102.88"/>
	</g>
	<g>
		<defs>
			<polygon id="SVGID_15_" points="-970.42,-890 -1163.75,-646.59 -1149.85,-646.59 -1058.39,-762.73 -966.95,-646.59 
				-953.04,-646.59 -1051.09,-770.38 -956.51,-890 			"/>
		</defs>
		<use xlink:href="#SVGID_15_"  style="overflow:visible;fill:#8EB7D1;"/>
		<clipPath id="SVGID_16_">
			<use xlink:href="#SVGID_15_"  style="overflow:visible;"/>
		</clipPath>
		<rect x="-1163.75" y="-890" class="st10" width="210.72" height="243.4"/>
	</g>
	<g>
		<defs>
			<rect id="SVGID_17_" x="-1521.55" y="-856.26" width="11.83" height="209.67"/>
		</defs>
		<use xlink:href="#SVGID_17_"  style="overflow:visible;fill:#8EB7D1;"/>
		<clipPath id="SVGID_18_">
			<use xlink:href="#SVGID_17_"  style="overflow:visible;"/>
		</clipPath>
		<rect x="-1521.55" y="-856.26" class="st11" width="11.83" height="209.67"/>
	</g>
	<g>
		<defs>
			<polygon id="SVGID_19_" points="-1608.13,-890 -1608.13,-879.22 -1521.55,-879.22 -1521.55,-879.22 -1509.73,-879.22 
				-1509.73,-879.22 -1422.79,-879.22 -1422.79,-890 			"/>
		</defs>
		<use xlink:href="#SVGID_19_"  style="overflow:visible;fill:#8EB7D1;"/>
		<clipPath id="SVGID_20_">
			<use xlink:href="#SVGID_19_"  style="overflow:visible;"/>
		</clipPath>
		<rect x="-1608.13" y="-890" class="st12" width="185.34" height="10.78"/>
	</g>
</g>
<g>
	<g>
		<defs>
			<path id="SVGID_21_" d="M-366.27-591.26v15.77h196.34l-132.25,151.54l5.09,10.21h14.74c18.31,0,35.01,1.7,50.1,5.08
				c15.09,3.4,28.14,8.48,39.16,15.26c11.02,6.79,19.59,15.44,25.69,25.94c6.1,10.52,9.16,23.07,9.16,37.64v1.02
				c0,12.21-2.64,23.49-7.88,33.82c-5.27,10.35-12.3,19.25-21.11,26.71c-8.83,7.46-19.17,13.22-31.03,17.29
				c-11.87,4.06-24.42,6.1-37.64,6.1c-24.76,0-46.88-5.34-66.38-16.02c-19.5-10.68-36.04-25-49.59-42.99l-13.22,11.19
				c14.24,18.66,32.12,33.92,53.66,45.78c21.53,11.87,46.54,17.81,75.03,17.81c15.59,0,30.35-2.47,44.25-7.38
				c13.9-4.91,26.1-11.78,36.63-20.59c10.51-8.82,18.89-19.33,25.17-31.54c6.27-12.21,9.41-25.76,9.41-40.69v-1.02
				c0-16.61-3.39-31.02-10.17-43.23c-6.79-12.22-16.2-22.39-28.23-30.53c-12.04-8.14-26.37-14.32-42.98-18.56
				c-16.62-4.24-34.93-6.52-54.94-6.87l130.73-149.54v-12.21H-366.27z"/>
		</defs>
		<use xlink:href="#SVGID_21_"  style="overflow:visible;fill:#8EB7D1;"/>
		<clipPath id="SVGID_22_">
			<use xlink:href="#SVGID_21_"  style="overflow:visible;"/>
		</clipPath>
		<rect x="-385.09" y="-591.26" class="st13" width="244.15" height="362.16"/>
	</g>
	<g>
		<defs>
			<path id="SVGID_23_" d="M-41.25-575.49h98.68c25.76,0,49.17,4.24,70.2,12.72c21.02,8.48,38.99,20.01,53.91,34.58
				c14.92,14.59,26.53,31.79,34.85,51.63c8.3,19.84,12.46,40.95,12.46,63.33v1.01c0,22.38-4.06,43.41-12.21,63.08
				c-8.14,19.67-19.75,36.8-34.84,51.37c-15.09,14.58-33.15,26.03-54.17,34.33c-21.03,8.32-44.25,12.47-69.69,12.47h-99.19V-575.49z
				 M-58.54-591.26v356.06H57.24c27.75,0,53.23-4.58,76.42-13.73c23.19-9.16,43.16-21.7,59.93-37.64
				c16.75-15.94,29.7-34.67,38.85-56.21c9.14-21.53,13.71-44.84,13.71-69.94v-1.02c0-25.1-4.57-48.4-13.71-69.94
				c-9.14-21.53-22.1-40.26-38.85-56.2c-16.77-15.94-36.74-28.49-59.93-37.65c-23.19-9.16-48.67-13.73-76.42-13.73H-58.54z"/>
		</defs>
		<use xlink:href="#SVGID_23_"  style="overflow:visible;fill:#8EB7D1;"/>
		<clipPath id="SVGID_24_">
			<use xlink:href="#SVGID_23_"  style="overflow:visible;"/>
		</clipPath>
		<rect x="-58.54" y="-591.26" class="st14" width="304.68" height="356.06"/>
	</g>
	<g>
		<defs>
			<polygon id="SVGID_25_" points="597.11,-591.26 468.41,-299.47 476.64,-280.79 614.91,-591.26 			"/>
		</defs>
		<use xlink:href="#SVGID_25_"  style="overflow:visible;fill:#8EB7D1;"/>
		<clipPath id="SVGID_26_">
			<use xlink:href="#SVGID_25_"  style="overflow:visible;"/>
		</clipPath>
		<rect x="468.41" y="-591.26" class="st15" width="146.5" height="310.47"/>
	</g>
	<g>
		<defs>
			<polygon id="SVGID_27_" points="281.24,-591.26 440.95,-232.66 455.19,-232.66 456.8,-236.28 448.67,-254.74 448.58,-254.53 
				300.05,-591.26 			"/>
		</defs>
		<use xlink:href="#SVGID_27_"  style="overflow:visible;fill:#8EB7D1;"/>
		<clipPath id="SVGID_28_">
			<use xlink:href="#SVGID_27_"  style="overflow:visible;"/>
		</clipPath>
		<rect x="281.24" y="-591.26" class="st16" width="175.57" height="358.6"/>
	</g>
</g>
</svg>
